<svg version="1.0" xmlns="http://www.w3.org/2000/svg" width="200" height="75" viewBox="0 0 2048 562"><g fill="#fff"><path d="M241 143.7c-20.1 11.7-48.3 28.1-88.2 51.1-12.5 7.2-17.2 10.5-18.3 12.7-1.4 2.6-1.6 9.9-1.3 61l.3 58 7-10.8c9.7-14.9 12.1-18.6 37-57.2 12-18.7 23.5-35.4 25.3-37.2 8.6-7.9 24.9-12 44.1-10.9 6.3.3 11.6.8 11.8 1 .3.3-27.1 45-38.1 62.1-11.2 17.4-73.7 118.2-73.8 119-.1.5 2.5 2.5 5.6 4.4 4.9 2.9 5.9 3.2 7 2 .7-.8 4.7-7 8.8-13.9 4.1-6.9 12.6-20.8 18.8-31 6.2-10.2 17.2-28.4 24.5-40.5 7.3-12.1 18.1-29.9 23.9-39.5 5.9-9.6 16.8-27.7 24.4-40.2l13.7-22.8h25.3c14.4 0 25.2.4 25.2.9 0 .9-3.7 7.3-30.5 52.6-12 20.3-13.8 23.3-37.5 63.5-7.3 12.4-16.8 28.6-21.2 36-19.1 32.2-24 41.2-23.2 42 2.6 2.4 54 31 55.8 31 1.2 0 10.4-4.8 20.6-10.7 10.2-5.8 20.6-11.8 23.2-13.2 2.6-1.4 4.8-3.1 4.8-3.7 0-.6-5.5-9.6-12.1-20-6.7-10.4-12.7-19.8-13.3-20.8-.6-1.1-1.5-2.5-1.9-3-.8-1.1-7.2-11-15.1-23.4-2.5-4-4.6-7.5-4.6-7.9 0-.3 2-3.8 4.3-7.7 2.4-3.9 8.8-14.7 14.2-23.9 5.4-9.2 10.1-16.4 10.5-16 1.1 1.2 19.2 29.5 31 48.3 1.4 2.2 5.7 9 9.6 15.2 4 6.2 10 15.8 13.4 21.3 8.7 14 7.7 13.3 14.9 9.4 3.3-1.9 6.1-3.9 6.1-4.5 0-.6-6.1-10.9-13.5-22.9-7.4-12-13.5-22.1-13.5-22.6 0-.4-.4-.9-.8-1.1-.4-.2-1.7-1.9-2.8-3.8-1.2-1.9-9.6-15.6-18.8-30.4L307 268.8l1.9-2.7c1.5-2.2 4.7-7.6 15.2-25.9 1.1-1.7 2.8-4.9 4-7 4.1-7.3 4.1-7.3 10.8 3.4 3.4 5.5 10.7 16.9 16.2 25.4s12.7 19.8 16 25c3.3 5.2 8.2 12.9 10.9 17 2.7 4.1 7.6 11.9 11 17.3 3.4 5.3 6.6 10 7.1 10.3.5.3.9-25.6.9-61.5v-62l-2.2-2.5c-1.3-1.4-14.2-9.4-28.8-17.7-14.6-8.3-32.3-18.5-39.5-22.7-7.1-4.1-16.4-9.4-20.5-11.7-4.1-2.3-14.6-8.3-23.3-13.3-13.2-7.8-16.4-9.2-20-9.2-3.5.1-7.5 2.1-25.7 12.7z" fill="#375BD2"/><path d="M544.5 231.5c-5.5 1.9-7.6 4.7-19 25.7-5.4 10.1-13.3 24.4-17.3 31.8-18.6 33.9-23.3 43.2-22.8 44.5.7 2 20.4 2.1 22.8.2.9-.6 3.8-5.3 6.4-10.2 2.6-5 5.3-9.3 5.8-9.7 1.4-1 67.8-1 69.2 0 .6.4 3.5 5 6.4 10.2 3 5.2 5.8 9.8 6.4 10.3.6.4 5.8.6 11.6.5 9.9-.3 10.5-.4 10.4-2.4 0-1.1-4.5-10.1-9.9-20-31.5-57.2-40.6-73.3-43.4-76.6-2.4-2.8-4.2-3.9-8.1-4.7-6.8-1.5-13.6-1.3-18.5.4zM564 265c10.9 20 16 29.7 16 30.4 0 .3-11.2.6-25 .6-13.7 0-25-.2-25-.5 0-1.4 22.4-42.2 23.8-43.3 2.2-1.7 2.7-1 10.2 12.8zm135.3-33.5-2.3 1.6V283c0 48.3.1 50 1.9 51 2.8 1.4 18.4 1.3 19.9-.2.8-.8 1.2-5.9 1.2-16.5V302h48.6l11.3 14.9c6.2 8.2 12.1 15.7 13.1 16.6 2.6 2.3 23.3 1.8 23.8-.6.2-.9-5.3-8.6-12.3-17.4-7-8.6-12.5-15.8-12.3-15.9.2-.1 2.6-1.1 5.3-2.1 6.6-2.4 12.7-8.7 14.6-15.1.9-3.1 1.4-9.5 1.4-17.4 0-15-1.8-21.3-7.6-27.1-7-7-8.5-7.2-59.4-7.6-40.1-.4-45.2-.2-47.2 1.2zm86 20.6c4.2 1.9 5.7 5.9 5.7 15.1 0 10.2-1.9 14.1-7.7 15.7-2.3.7-15.8 1.1-33.5 1.1H720v-33h31.5c20.4 0 32.2.4 33.8 1.1zm107.5-21c-1.7.9-1.8 4.5-1.8 51.4 0 49.7 0 50.4 2 51.5 1.4.8 17.1 1 50.8.8l48.7-.3 5.5-2.7c9-4.5 11.9-10.9 12-26.4 0-10.3-2-17-6.3-21.2l-3.4-3.3 3.3-3.5c4.5-4.7 5.7-9.9 5.2-21.9-.7-16.2-5.4-22.1-19.8-24.4-8.6-1.4-93.9-1.4-96.2 0zm91.6 22c2.4 1.9 2.6 2.7 2.6 9 0 7.9-1.6 10.4-7.2 11.4-1.8.3-17.5.4-34.8.3l-31.5-.3-.3-11.3-.3-11.2h34.4c33.3 0 34.5.1 37.1 2.1zm.6 39.5c2.6 2.5 3.7 10.8 2.1 15.7-.8 2.2-2.1 3.9-3.9 4.6-1.9.8-13.2 1-36.2.9l-33.5-.3-.3-11.8-.3-11.8 35 .3c33.8.3 35.1.4 37.1 2.4zm101.8-61.5c-1.7.9-1.8 4.5-1.8 51.4 0 48.8.1 50.5 1.9 51.5 2.8 1.4 18.4 1.3 19.9-.2 1.7-1.7 1.7-100.9 0-102.6-1.5-1.5-17.5-1.6-20-.1zm95 0c-1.5.8-1.8 2.4-1.8 9.2 0 4.5.5 8.9 1 9.7.8 1.3 5 1.5 25.5 1.8l24.5.3.2 41.2.3 41.2 8.5.3c4.7.2 9.5 0 10.7-.3l2.3-.5.2-41.1.3-41 24.3-.2c20.3-.2 24.4-.4 25.2-1.7.5-.8 1-5.2 1-9.7 0-7.1-.3-8.4-1.9-9.3-2.7-1.4-117.9-1.3-120.3.1zm196 0c-1.7.9-1.8 4.5-1.8 51.8 0 45.5.2 51 1.6 51.5.9.3 5.3.6 9.9.6 11.7 0 11.5.3 11.5-18.1V302h24.3l24.2.1 12 16c6.6 8.8 12.9 16.2 14 16.5 1.1.3 6.5.4 12 .2 7.9-.2 10-.6 10.3-1.8.1-.8-5.4-8.5-12.3-17-6.8-8.5-12.5-15.7-12.5-16 0-.3 2.3-1.3 5-2.3 7.1-2.5 11.5-6.8 14-13.5 1.9-5.1 2.1-7.3 1.8-20.7-.3-12.2-.7-15.7-2.2-18.5-4.4-8.3-10.6-12.4-21.3-14-9.2-1.3-88.3-1.3-90.5.1zm86.2 21.2c3.8 1.9 6 7.2 6 14.8 0 8.1-1.3 12.2-4.8 14.6-2.4 1.6-5.7 1.8-34.4 2.1l-31.8.3V251h31.3c22.9 0 31.9.4 33.7 1.3zm104.6-21c-1.6 1.2-1.7 3.9-1.4 39.2.4 41.9.7 43.9 6.8 52.2 4.3 5.9 13 9.9 24 11.3 10.8 1.3 52.8 1.3 64.2 0 17.3-2 25.7-8.4 29.4-22.5 1-3.7 1.4-14.5 1.4-42.6 0-33.5-.2-37.8-1.6-38.3-2.2-.9-17.7-.7-19.1.2-.9.5-1.3 10.3-1.5 36.7-.3 33.7-.4 36.2-2.3 39.2-3.9 6.5-5.6 6.8-38.5 6.8-43.1 0-40 3.5-40-46.2 0-33.8-.1-35.3-1.9-36.3-2.8-1.5-17.3-1.3-19.5.3zm211.9-.6c-1.1.2-3 .6-4.2.9-1.3.2-3.1 1.9-4 3.7-1.6 2.9-1.8 7.4-2.1 48.7-.2 29.8 0 46.5.7 48.3 1 2.7 1.2 2.7 9.8 2.7 4.9 0 9.4-.4 10-.8 1-.6 1.3-10.4 1.5-41.3.3-39.5.3-40.4 2.3-40.4 2 0 3.8 3.7 28.5 58.6 8.2 18.2 11.8 22.4 20.3 23.4 7.4.9 16.1-.1 19.9-2.3 5-2.9 5.6-4.1 32.1-63.2 5.9-13.3 7.8-16.6 9.5-16.8l2.2-.3v40.3c0 30.1.3 40.7 1.2 41.6 1.7 1.7 16.9 1.6 19.2-.1 1.6-1.2 1.7-4.6 1.4-48.8-.3-43.4-.5-47.7-2.1-50.2-2.4-3.6-5.1-4.2-20.4-4.2-18.7 0-16.5-2.3-32.4 34.5-21.9 51-21.2 49.5-23.9 49.5-2.8 0-2.1 1.6-29.1-60.9-4-9.3-8.2-18-9.3-19.3-1.2-1.3-3.9-2.8-6.1-3.3-4-.9-21.1-1.2-25-.3z"/></g></svg>