<svg width="283" height="48" viewBox="0 0 283 48" fill="none" xmlns="http://www.w3.org/2000/svg">
<path d="M16.7571 1.96784C13.6361 3.78073 9.25746 6.32188 3.06205 9.88569C1.12113 11.0013 0.391348 11.5126 0.220544 11.8535C0.00316186 12.2564 -0.0278942 13.3875 0.0186878 21.3054L0.0652708 30.2923L1.15219 28.6189C2.65834 26.3102 3.031 25.7369 6.8973 19.7559C8.76059 16.8583 10.5462 14.2707 10.8257 13.9918C12.161 12.7677 14.692 12.1324 17.6732 12.3029C18.6515 12.3494 19.4744 12.4268 19.5055 12.4578C19.5521 12.5043 15.2976 19.4305 13.5896 22.0801C11.8505 24.7762 2.14594 40.3949 2.13041 40.5189C2.11488 40.5964 2.51859 40.9063 2.99994 41.2007C3.76078 41.65 3.91605 41.6965 4.08685 41.5106C4.19555 41.3866 4.81664 40.4259 5.45326 39.3568C6.08988 38.2876 7.40971 36.1339 8.3724 34.5534C9.3351 32.9729 11.0431 30.1529 12.1766 28.278C13.3101 26.4031 14.987 23.6451 15.8876 22.1576C16.8037 20.6701 18.4962 17.8655 19.6763 15.9287L21.8035 12.3958H25.7319C27.9679 12.3958 29.6448 12.4578 29.6448 12.5353C29.6448 12.6748 29.0703 13.6664 24.909 20.6856C23.0457 23.831 22.7662 24.2958 19.0862 30.5248C17.9527 32.4461 16.4776 34.9563 15.7944 36.1029C12.8287 41.0922 12.0679 42.4867 12.1921 42.6107C12.5958 42.9826 20.5769 47.4141 20.8563 47.4141C21.0427 47.4141 22.4712 46.6703 24.055 45.7561C25.6388 44.8574 27.2536 43.9277 27.6573 43.7108C28.061 43.4939 28.4026 43.2305 28.4026 43.1375C28.4026 43.0445 27.5486 41.65 26.5238 40.0386C25.4835 38.4271 24.5519 36.9706 24.4587 36.8156C24.3655 36.6452 24.2258 36.4283 24.1637 36.3508C24.0395 36.1804 23.0457 34.6464 21.819 32.725C21.4309 32.1052 21.1048 31.5629 21.1048 31.5009C21.1048 31.4544 21.4153 30.9121 21.7725 30.3078C22.1451 29.7035 23.1389 28.0301 23.9773 26.6046C24.8158 25.1791 25.5456 24.0634 25.6077 24.1254C25.7785 24.3113 28.589 28.6964 30.4212 31.6094C30.6386 31.9503 31.3063 33.0039 31.9118 33.9646C32.5329 34.9253 33.4646 36.4128 33.9925 37.265C35.3434 39.4343 35.1881 39.3258 36.3061 38.7215C36.8185 38.4271 37.2532 38.1172 37.2532 38.0242C37.2532 37.9313 36.3061 36.3353 35.157 34.4759C34.008 32.6166 33.0608 31.0516 33.0608 30.9741C33.0608 30.9121 32.9987 30.8346 32.9366 30.8037C32.8745 30.7727 32.6727 30.5093 32.5019 30.2149C32.3155 29.9205 31.0112 27.7977 29.5827 25.5044L27.0052 21.3518L27.3002 20.9335C27.5331 20.5926 28.03 19.7559 29.6604 16.9203C29.8312 16.6569 30.0951 16.1611 30.2814 15.8357C30.9181 14.7046 30.9181 14.7046 31.9584 16.3625C32.4863 17.2147 33.6198 18.9811 34.4738 20.2982C35.3278 21.6152 36.4458 23.3662 36.9582 24.1719C37.4706 24.9776 38.2314 26.1707 38.6507 26.806C39.0699 27.4413 39.8308 28.6499 40.3587 29.4866C40.8866 30.3078 41.3835 31.0361 41.4611 31.0826C41.5388 31.1291 41.6009 27.1159 41.6009 21.5533V11.9465L41.2593 11.5591C41.0574 11.3422 39.0544 10.1026 36.7874 8.81654C34.5204 7.53047 31.7721 5.95 30.6541 5.29922C29.5517 4.66393 28.1076 3.84271 27.471 3.48633C26.8344 3.12995 25.204 2.20026 23.8531 1.42552C21.8035 0.216927 21.3066 0 20.7477 0C20.2042 0.015495 19.5831 0.325391 16.7571 1.96784Z" fill="#375BD2"/>
<path d="M67.1821 16.2355C66.3281 16.5299 66.002 16.9638 64.2319 20.2177C63.3934 21.7827 62.1668 23.9984 61.5457 25.145C58.6576 30.3978 57.9278 31.8388 58.0055 32.0402C58.1141 32.3501 61.173 32.3656 61.5457 32.0712C61.6854 31.9783 62.1357 31.25 62.5394 30.4908C62.9432 29.716 63.3624 29.0497 63.44 28.9878C63.6574 28.8328 73.9675 28.8328 74.1849 28.9878C74.2781 29.0497 74.7284 29.7625 75.1787 30.5682C75.6445 31.374 76.0792 32.0867 76.1724 32.1642C76.2656 32.2262 77.073 32.2572 77.9736 32.2417C79.5108 32.1952 79.604 32.1797 79.5884 31.8698C79.5884 31.6994 78.8897 30.3048 78.0512 28.7708C73.1601 19.9078 71.7471 17.4131 71.3123 16.9018C70.9397 16.468 70.6602 16.2975 70.0546 16.1735C68.9988 15.9411 67.9429 15.9721 67.1821 16.2355ZM70.2099 21.4263C71.9024 24.5252 72.6943 26.0283 72.6943 26.1367C72.6943 26.1832 70.9552 26.2297 68.8124 26.2297C66.6852 26.2297 64.9306 26.1987 64.9306 26.1522C64.9306 25.9353 68.4087 19.6134 68.6261 19.4429C68.9677 19.1795 69.0454 19.288 70.2099 21.4263ZM91.2184 16.2355L90.8613 16.4834V24.2153C90.8613 31.6994 90.8768 31.9628 91.1563 32.1177C91.5911 32.3346 94.0133 32.3191 94.2462 32.0867C94.3705 31.9628 94.4326 31.1725 94.4326 29.5301V27.1594H101.979L103.733 29.4681C104.696 30.7387 105.612 31.9008 105.768 32.0402C106.171 32.3966 109.385 32.3191 109.463 31.9473C109.494 31.8078 108.64 30.6147 107.553 29.2512C106.466 27.9186 105.612 26.803 105.643 26.7875C105.674 26.772 106.047 26.6171 106.466 26.4621C107.491 26.0902 108.438 25.114 108.733 24.1224C108.873 23.642 108.951 22.6504 108.951 21.4263C108.951 19.1021 108.671 18.1259 107.771 17.2272C106.684 16.1426 106.451 16.1116 98.5473 16.0496C92.3208 15.9876 91.5289 16.0186 91.2184 16.2355ZM104.572 19.4275C105.224 19.7219 105.457 20.3416 105.457 21.7672C105.457 23.3476 105.162 23.9519 104.261 24.1998C103.904 24.3083 101.808 24.3703 99.0597 24.3703H94.4326V19.257H99.3237C102.491 19.257 104.324 19.319 104.572 19.4275ZM121.264 16.1735C121 16.313 120.984 16.8708 120.984 24.1379C120.984 31.8388 120.984 31.9473 121.295 32.1177C121.512 32.2417 123.95 32.2727 129.183 32.2417L136.745 32.1952L137.599 31.7768C138.996 31.0796 139.446 30.0879 139.462 27.6862C139.462 26.0902 139.151 25.0521 138.484 24.4013L137.956 23.89L138.468 23.3476C139.167 22.6194 139.353 21.8137 139.276 19.9543C139.167 17.4441 138.437 16.5299 136.201 16.1735C134.866 15.9566 121.621 15.9566 121.264 16.1735ZM135.487 19.5824C135.86 19.8768 135.891 20.0008 135.891 20.9769C135.891 22.201 135.642 22.5884 134.773 22.7433C134.493 22.7898 132.055 22.8053 129.369 22.7898L124.478 22.7433L124.385 19.257H129.726C134.897 19.257 135.083 19.2725 135.487 19.5824ZM135.58 25.7029C135.984 26.0902 136.155 27.3763 135.906 28.1356C135.782 28.4764 135.58 28.7398 135.301 28.8483C135.006 28.9723 133.251 29.0033 129.68 28.9878L124.478 28.9413L124.385 25.2845L129.819 25.331C135.068 25.3775 135.27 25.393 135.58 25.7029ZM151.387 16.1735C151.123 16.313 151.107 16.8708 151.107 24.1379C151.107 31.6994 151.123 31.9628 151.402 32.1177C151.837 32.3346 154.259 32.3191 154.492 32.0867C154.756 31.8233 154.756 16.4525 154.492 16.189C154.259 15.9566 151.775 15.9411 151.387 16.1735ZM166.138 16.1735C165.905 16.2975 165.859 16.5454 165.859 17.5991C165.859 18.2963 165.936 18.9781 166.014 19.1021C166.138 19.3035 166.79 19.3345 169.973 19.381L173.778 19.4275L173.809 25.8113L173.855 32.1952L175.175 32.2417C175.905 32.2727 176.65 32.2417 176.836 32.1952L177.194 32.1177L177.225 25.7494L177.271 19.3965L181.044 19.3655C184.196 19.3345 184.833 19.3035 184.957 19.1021C185.035 18.9781 185.113 18.2963 185.113 17.5991C185.113 16.4989 185.066 16.2975 184.818 16.1581C184.398 15.9411 166.511 15.9566 166.138 16.1735ZM196.572 16.1735C196.308 16.313 196.292 16.8708 196.292 24.1998C196.292 31.25 196.323 32.1022 196.541 32.1797C196.68 32.2262 197.364 32.2727 198.078 32.2727C199.895 32.2727 199.864 32.3191 199.864 29.4681V27.1594H203.637L207.394 27.1749L209.258 29.654C210.282 31.0176 211.261 32.1642 211.431 32.2107C211.602 32.2572 212.441 32.2727 213.295 32.2417C214.521 32.2107 214.847 32.1487 214.894 31.9628C214.91 31.8388 214.056 30.6457 212.984 29.3287C211.928 28.0116 211.043 26.896 211.043 26.8495C211.043 26.803 211.4 26.6481 211.82 26.4931C212.922 26.1057 213.605 25.4395 213.993 24.4013C214.288 23.6111 214.319 23.2702 214.273 21.1939C214.226 19.3035 214.164 18.7612 213.931 18.3273C213.248 17.0413 212.285 16.406 210.624 16.1581C209.195 15.9566 196.913 15.9566 196.572 16.1735ZM209.956 19.4584C210.546 19.7528 210.888 20.5741 210.888 21.7517C210.888 23.0068 210.686 23.642 210.143 24.0139C209.77 24.2618 209.258 24.2928 204.801 24.3393L199.864 24.3858V19.257H204.724C208.279 19.257 209.677 19.319 209.956 19.4584ZM226.198 16.2045C225.949 16.3905 225.934 16.8088 225.981 22.2785C226.043 28.7708 226.089 29.0807 227.036 30.3668C227.704 31.281 229.055 31.9008 230.763 32.1177C232.44 32.3191 238.961 32.3191 240.731 32.1177C243.418 31.8078 244.722 30.8162 245.297 28.6314C245.452 28.0581 245.514 26.3846 245.514 22.0306C245.514 16.8398 245.483 16.1735 245.265 16.0961C244.924 15.9566 242.517 15.9876 242.3 16.1271C242.16 16.2045 242.098 17.723 242.067 21.8137C242.02 27.0354 242.005 27.4228 241.71 27.8876C241.104 28.8948 240.84 28.9413 235.732 28.9413C229.039 28.9413 229.521 29.4836 229.521 21.7827C229.521 16.5454 229.505 16.313 229.226 16.1581C228.791 15.9256 226.539 15.9566 226.198 16.2045ZM259.1 16.1116C258.93 16.1426 258.635 16.2045 258.448 16.251C258.246 16.282 257.967 16.5454 257.827 16.8243C257.579 17.2737 257.548 17.9709 257.501 24.3703C257.47 28.9878 257.501 31.5754 257.61 31.8543C257.765 32.2727 257.796 32.2727 259.131 32.2727C259.892 32.2727 260.591 32.2107 260.684 32.1487C260.839 32.0557 260.886 30.5372 260.917 25.7494C260.964 19.6289 260.964 19.4894 261.274 19.4894C261.585 19.4894 261.864 20.0627 265.699 28.5694C266.973 31.3895 267.532 32.0402 268.852 32.1952C270.001 32.3346 271.351 32.1797 271.941 31.8388C272.718 31.3895 272.811 31.2035 276.926 22.0461C277.842 19.9853 278.137 19.4739 278.401 19.4429L278.742 19.3965V25.6409C278.742 30.3048 278.789 31.9473 278.929 32.0867C279.193 32.3501 281.553 32.3346 281.91 32.0712C282.158 31.8853 282.174 31.3585 282.127 24.5097C282.081 17.785 282.05 17.1187 281.801 16.7314C281.429 16.1735 281.009 16.0806 278.634 16.0806C275.73 16.0806 276.072 15.7242 273.603 21.4263C270.202 29.3287 270.311 29.0962 269.892 29.0962C269.457 29.0962 269.566 29.3441 265.373 19.6599C264.752 18.2189 264.1 16.8708 263.929 16.6694C263.743 16.468 263.324 16.2355 262.982 16.1581C262.361 16.0186 259.706 15.9721 259.1 16.1116Z" fill="white"/>
</svg>
