<svg width="1000" height="1000" viewBox="0 0 475 200" xmlns="http://www.w3.org/2000/svg"><path d="M406.764 85.483c3.192-8.703 16.54-12.835 24.579-12.835H435v19.31c-4.587 0-9.263-.24-13.671 1.262a16.88 16.88 0 0 0-7.833 5.304c-3.746 5.054-3.433 8.175-3.728 12.916-.277 4.607-.152 7.755-.152 12.37v34.258h-21.11V73.515h18.293l-.035 11.968Zm-256.662 52.558C134.982 152.844 121.938 160 100.461 160 64.696 160 40 135.018 40 99.839 40 63.712 68.004 40 100.8 40a65.744 65.744 0 0 1 49.803 22.916l-15.298 14.642C124.96 66.574 113.667 60.85 100.3 60.85c-21.46 0-38.975 16.547-38.975 38.989 0 23.56 16.863 39.311 39.458 39.311 14.154 0 23.703-5.724 34.522-16.547l14.797 15.438Zm90.577 3.158c-9.066 12.898-21.02 18.658-38.823 18.658-26.886 0-44.223-19.732-44.223-44.562 0-23.077 16.702-44.41 43.91-44.41 26.726 0 44.859 19.106 44.859 45.841 0 1.914-.152 2.863-.152 4.777h-68.097c2.066 12.576 11.624 19.57 23.703 19.57 9.067 0 15.12-2.54 21.003-8.273l17.82 8.399Zm-15.593-36.45c-2.862-9.838-11.928-15.912-23.248-15.912-10.497 0-18.615 5.25-22.746 15.913h45.994Zm32.04-64.293h21.154V157.63h-21.155V40.456ZM372.05 141.2c-9.066 12.898-21.003 18.658-38.822 18.658-26.887 0-44.224-19.732-44.224-44.562 0-23.077 16.702-44.41 43.91-44.41 26.726 0 44.868 19.106 44.868 45.841 0 1.914-.161 2.863-.161 4.777h-68.097c2.066 12.576 11.624 19.57 23.704 19.57 9.075 0 15.12-2.54 21.003-8.273l17.82 8.399Zm-15.593-36.45c-2.861-9.838-11.928-15.912-23.247-15.912-10.497 0-18.607 5.25-22.747 15.913h45.994Z" fill="#FFF" fill-rule="evenodd"/></svg>