<svg width="1044" height="276" xmlns="http://www.w3.org/2000/svg"><path d="M431.659 108.391c-2.84-11.07-10-19.17-24-19.17-20.66 0-29.3 18.22-29.3 36.71s8.64 36.72 29.3 36.72c15 0 23.22-11.2 24.56-25.24h16.47c-1.35 23.08-17.68 39-41 39-28.89 0-46.17-22.95-46.17-50.49s17.22-50.53 46.11-50.53c21.73.13 38.87 12.15 40.9 32.94l-16.87.06zm27 30.72c0-21.33 12.82-36.71 35.23-36.71s35.23 15.38 35.23 36.71-12.82 36.86-35.23 36.86-35.23-15.39-35.23-36.86zm55.07 0c0-12-6.07-24.56-19.84-24.56s-19.84 12.55-19.84 24.56 6.07 24.71 19.84 24.71 19.84-12.56 19.84-24.71zm28.62-61.42h15.39v14.58h-15.39v-14.58zm0 26.6h15.39v69.79h-15.39v-69.79zm32.13 0h14.58v10.26l.27.27a25 25 0 0 1 21.74-12.43c15.12 0 24.7 8.1 24.7 23.75v47.93h-15.39v-43.87c-.27-10.93-4.59-15.65-13.63-15.65-10.26 0-16.88 8.09-16.88 18.35v41.18h-15.39v-69.79zm163.75 69.79h-10.8l-2.56-11.34c-9 10.26-17.28 13.63-29 13.63-28.87.02-46.19-22.98-46.19-50.49s17.32-50.49 46.17-50.49c21 0 38.74 11.2 41.3 32.94h-16.47c-1.62-12.69-12.68-19.17-24.83-19.17-20.66 0-29.3 18.22-29.3 36.71s8.64 36.72 29.3 36.72c17.27.27 26.72-10.12 27-26.46h-25.65v-12.81h41l.03 50.76zm28.22-30.92c0 10.94 5.94 20.66 18.76 20.66 8.91 0 14.31-3.92 17-11.61h14.59c-3.37 15.25-16.33 23.76-31.59 23.76-21.86 0-34.15-15.26-34.15-36.72 0-19.85 13-36.85 33.75-36.85 22 0 35.5 19.84 32.94 40.76h-51.3zm35.91-10.12c-.54-9.72-7.16-18.49-17.55-18.49-10.67 0-17.95 8.09-18.36 18.49h35.91zm74.25-5.4c-1.22-8.51-7.43-13.09-15.93-13.09-8 0-19.17 4.18-19.17 25.37 0 11.61 5.13 23.9 18.49 23.9 8.91 0 15.12-5.94 16.61-15.93h15.39c-2.84 18.09-14 28.08-32 28.08-21.87 0-33.88-15.53-33.88-36.05 0-21.06 11.48-37.52 34.42-37.52 16.2 0 30 8.1 31.46 25.24h-15.39zm28.39-49.95h15.39v54.81l27.81-28.21h18.9l-26.73 25.64 29.29 44.15h-18.8l-21.33-33.89-9.18 8.91v25h-15.35v-96.41zm68.81 61.42c0-21.33 12.82-36.71 35.23-36.71s35.24 15.38 35.24 36.71-12.83 36.86-35.24 36.86-35.23-15.39-35.23-36.86zm55.08 0c0-12-6.08-24.56-19.85-24.56s-19.84 12.55-19.84 24.56 6.07 24.71 19.84 24.71 19.85-12.56 19.85-24.71z" class="cls-1" data-name="Coin Gecko Vector Text" fill="#fff"/><g stroke="null" data-name="Coin Gecko AI"><path fill="#8dc63f" d="M272.999 127.253A107.5 106.724 0 1 1 165.032 21.001a107.5 106.724 0 0 1 107.967 106.252z" class="cls-2"/><path fill="#f9e988" d="M264.936 127.292a99.422 98.704 0 1 1-99.866-98.256 99.43 98.712 0 0 1 99.866 98.256z" class="cls-3"/><path fill="#fff" d="M167.33 35.432a54.67 54.274 0 0 1 19.108 0 58.16 57.74 0 0 1 18.252 6.07c5.67 3.094 10.57 7.294 15.447 11.23s9.73 7.966 14.349 12.374A72.742 72.216 0 0 1 246.724 79.8a84.185 83.577 0 0 1 8.569 17.145c4.152 12.11 5.593 25.158 3.52 37.6h-.615c-2.08-12.334-4.9-24.09-9.348-35.272a138.66 137.658 0 0 0-7.353-16.434 162.652 161.478 0 0 0-9.675-15.413 56.32 55.914 0 0 0-12.963-12.993c-5.047-3.573-10.85-5.885-16.467-8.081s-11.187-4.47-17.045-6.14-11.809-2.924-18.025-4.138l.008-.642z" class="cls-1"/><path fill="#8bc53f" d="M215.93 92.452c-7.213-2.073-14.691-5.012-22.263-7.981-.436-1.887-2.119-4.238-5.523-7.107-4.947-4.262-14.24-4.153-22.271-2.266-8.865-2.073-17.62-2.808-26.026-.774-68.746 18.8-29.765 64.669-55.004 110.776 3.59 7.564 42.299 51.692 98.308 39.852 0 0-19.156-45.698 24.07-67.63 35.063-17.858 60.395-50.896 8.71-64.87z" class="cls-4"/><path fill="#fff" d="M224.421 122.466a4.168 4.137 0 1 1-4.19-4.114 4.175 4.145 0 0 1 4.19 4.114z" class="cls-1"/><path fill="#009345" d="M165.873 75.067c5.009.355 23.12 6.187 27.794 9.373-3.895-11.214-17.005-12.706-27.794-9.373z" class="cls-5"/><path fill="#fff" d="M170.64 103.426a19.225 19.087 0 1 1-19.225-19.079 19.218 19.079 0 0 1 19.225 19.079z" class="cls-1"/><path fill="#58595b" d="M164.938 103.596a13.523 13.426 0 1 1-13.523-13.426 13.523 13.426 0 0 1 13.523 13.426z" class="cls-6"/><path fill="#8bc53f" d="M239.993 130.88c-15.58 10.897-33.294 19.164-58.424 19.164-11.762 0-14.146-12.374-21.92-6.326-4.012 3.14-18.158 10.162-29.384 9.628s-29.422-7.068-34.493-30.857c-2.01 23.789-3.038 41.313-12.035 61.397 17.916 28.483 60.636 50.454 99.414 40.988-4.168-28.885 21.258-57.174 35.584-71.651 5.453-5.484 15.813-14.431 21.258-22.358v.015z" class="cls-4"/><path fill="#58595b" d="M239.386 131.592c-4.838 4.377-10.594 7.617-16.452 10.479a104.571 103.816 0 0 1-18.462 6.674c-6.357 1.632-12.986 2.861-19.701 2.258s-13.578-2.87-18.026-7.865l.21-.24c5.454 3.511 11.748 4.749 18.01 4.926a84.574 83.964 0 0 0 18.93-1.546 103.09 102.347 0 0 0 18.392-5.646c5.944-2.436 11.825-5.259 16.888-9.28l.21.24z" class="cls-6"/></g></svg>