<?xml version="1.0" encoding="utf-8"?>
<!-- Generator: Adobe Illustrator 19.2.1, SVG Export Plug-In . SVG Version: 6.00 Build 0)  -->
<svg version="1.1" id="layer" xmlns="http://www.w3.org/2000/svg" xmlns:xlink="http://www.w3.org/1999/xlink" x="0px" y="0px"
	 viewBox="0 0 652 652" style="enable-background:new 0 0 652 652;" xml:space="preserve">
<style type="text/css">
	.st0{fill:#ffffff;}
</style>
<g>
	<path class="st0" d="M108.6,331.6c-1.8,1.1-3.9,1.3-5.5,0.4c-2-1.2-3.2-3.9-3.2-7.6v-11.3c0-5.4-2.1-9.3-5.7-10.3
		c-6.1-1.8-10.7,5.7-12.4,8.5L71,328.6v-21.3c-0.1-4.9-1.7-7.8-4.7-8.7c-2-0.6-5-0.3-7.9,4.1l-24.1,38.6c-3.2-6.1-4.9-12.9-4.9-19.8
		c0-23.3,18.7-42.2,41.6-42.2s41.6,18.9,41.6,42.2c0,0,0,0.1,0,0.1c0,0,0,0.1,0,0.1C112.8,326.2,111.4,329.8,108.6,331.6
		L108.6,331.6z M121.8,321.5L121.8,321.5v-0.1l0-0.1c-0.1-28.3-22.9-51.4-50.8-51.4c-28,0-50.8,23.1-50.8,51.6
		c0,28.4,22.8,51.6,50.8,51.6c12.9,0,25.1-4.9,34.5-13.8c1.9-1.8,2-4.7,0.2-6.6c-1.7-1.9-4.6-2-6.5-0.3c0,0,0,0-0.1,0.1
		c-7.6,7.2-17.8,11.3-28.3,11.3c-12.3,0-23.3-5.4-30.9-14l21.7-34.8v16.1c0,7.7,3,10.2,5.5,10.9c2.5,0.7,6.3,0.2,10.4-6.3l11.9-19.3
		c0.4-0.6,0.7-1.2,1.1-1.6v9.8c0,7.2,2.9,13,7.9,15.8c4.5,2.6,10.2,2.3,14.9-0.6C119.1,336,122.2,329.4,121.8,321.5z M192.6,303.9
		c1.2,0.7,2.3,2.4,2.3,3.9c0,2.4-2,4.4-4.3,4.4c-0.6,0-1.1-0.2-1.6-0.3c-2.7-2-6.1-3.3-9.7-3.3c-8.5,0-14.3,6.9-14.3,15.5
		c0,8.6,5.9,15.4,14.3,15.4c4.2,0,8-1.7,10.8-4.4c0.7-0.5,1.6-0.8,2.5-0.8c2.3,0,4.1,1.8,4.1,4.1c0,1.5-0.9,2.8-2,3.5
		c-4.1,3.5-9.6,5.8-15.3,5.8c-13,0-23.6-10.7-23.6-23.9s10.6-23.9,23.6-23.9C184.2,299.8,188.8,301.3,192.6,303.9z M216.4,313.9
		c8.9,0,16.3,7.5,16.3,16.8c0,9.2-7.5,17.1-16.3,17.1c-9.3,0-17-7.8-17-17.1C199.4,321.4,207.1,313.9,216.4,313.9z M216.3,339.5
		c3.9,0,7.2-3.7,7.2-8.7c0-5-3.3-8.2-7.2-8.2c-4.2,0-7.7,3.1-7.7,8.2C208.6,335.7,212.1,339.5,216.3,339.5z M238.3,342.6V319
		c0-2.6,2-4.7,4.6-4.7c2.5,0,4.6,2.1,4.6,4.7v23.6c0,2.6-2.1,4.7-4.6,4.7S238.3,345.1,238.3,342.6z M237.6,305.4
		c0-3.1,2.4-5.5,5.3-5.5c3,0,5.4,2.5,5.4,5.5c0,3-2.4,5.4-5.4,5.4C239.9,310.7,237.6,308.3,237.6,305.4z M265.1,329.8v12.8
		c0,2.6-2.1,4.7-4.6,4.7c-2.5,0-4.6-2.1-4.6-4.7v-24.7c0-2,1.6-3.6,3.6-3.6c2,0,3.5,1.7,3.5,3.6c3.7-3.5,7-4,10.1-4
		c9.2,0,13.3,6.9,13.3,14.8v13.9c0,2.6-2.1,4.7-4.6,4.7s-4.6-2.1-4.6-4.7v-12.8c0-4-0.5-7.4-6.3-7.4
		C266.8,322.4,265.1,325.8,265.1,329.8L265.1,329.8z M316.2,334.7c-1.1,0-1.8-0.5-2.4-1.2l-10.7-11.6v20.7c0,2.6-2.1,4.7-4.6,4.7
		c-2.5,0-4.6-2.1-4.6-4.7v-41c0.3-0.7,1-1.2,1.7-1.2c0.8,0,1.5,0.7,2,1.2l17.1,19.2c0.5,0.6,1.1,0.9,1.5,0.9c0.3,0,1-0.3,1.5-0.9
		l17.1-19.2c0.5-0.5,1.1-1.2,2-1.2c0.8,0,1.5,0.5,1.7,1.2v41c0,2.6-2,4.7-4.6,4.7c-2.5,0-4.6-2.1-4.6-4.7v-20.7l-10.7,11.6
		C317.8,334.2,317.1,334.7,316.2,334.7L316.2,334.7z M360.4,339.5c4.1,0,7.6-3.7,7.6-8.7c0-5-3.6-8.3-7.6-8.3s-7.3,3.4-7.3,8.3
		C353.1,335.6,356.3,339.5,360.4,339.5z M370.2,343.7l-0.2-1.1c-1.8,3.5-7.5,5.1-11.1,5.1c-8.6,0-15-7.8-15-17.1
		c0-9.2,6.5-16.8,15.5-16.8c1.5,0,6.7,0.4,10.7,5.1l0.2-1.1c0-2,1.5-3.6,3.5-3.6c2,0,3.6,1.7,3.6,3.6v25.8c0,2-1.6,3.6-3.6,3.6
		C371.7,347.3,370.2,345.6,370.2,343.7L370.2,343.7z M402.7,322.4h-1c-5.8,0.3-6.9,3.6-6.9,7.4v12.8c0,2.6-2.1,4.7-4.6,4.7
		c-2.5,0-4.6-2.1-4.6-4.7v-24.7c0-2,1.6-3.6,3.6-3.6s3.5,1.7,3.5,3.6c3.4-3.2,6.2-3.9,9-4h0.9c2.2,0,4.2,1.9,4.2,4.3
		C406.9,320.4,404.9,322.4,402.7,322.4L402.7,322.4z M438.2,340.4c0.4,0.7,0.7,1.4,0.7,2.2c0,2.4-2.2,4.6-4.6,4.6
		c-1.6,0-3-1.2-4.1-2.6l-10.6-12.3v10.2c0,2.6-2.1,4.7-4.6,4.7s-4.6-2.1-4.6-4.7v-37.5c0-2.6,2-4.7,4.6-4.7s4.6,2.1,4.6,4.7v23.4
		l10.6-11.7c1.1-1.2,2.4-2.5,4-2.5c2.3,0,4.4,2.1,4.4,4.5c0,0.7-0.2,1.5-0.6,2.1l-8.4,9.2L438.2,340.4L438.2,340.4z M456.2,322.5
		c-2.5,0-6.6,1.3-6.6,5.2h13.3C462.8,323.8,458.6,322.5,456.2,322.5L456.2,322.5z M468.2,333.6h-18.6c0,5.5,5.3,6.4,7.6,6.4
		c1.7,0,4.1-0.3,6-1.2c0.6-0.4,1.5-0.7,2.4-0.7c2,0,3.7,1.7,3.7,3.8c0,1.4-0.9,2.6-2,3.3c-2.8,2.1-6.5,2.6-10,2.6
		c-9.3,0-17-5-17-16.7c0-9.2,4.7-17.2,15.7-17.2c8.9,0,15.6,5.8,15.8,16.1C471.8,331.9,470.2,333.6,468.2,333.6L468.2,333.6z
		 M493.8,347.7h-2.5c-7,0-11.1-3.1-11.1-14v-11.3h-2.4c-2.2,0-4.1-2-4.1-4.2c0-2.4,2-4.3,4.1-4.3h2.4v-8.7c0-2.6,2-4.7,4.6-4.7
		c2.5,0,4.6,2.1,4.6,4.7v8.7h3.8c2.2,0,4.1,1.9,4.1,4.3c0,2.2-2,4.2-4.1,4.2h-3.8v9.5c0,6.3,0.3,7.6,3.1,7.6h1.3
		c2.2,0,4.1,1.8,4.1,4.1C497.9,345.8,496,347.7,493.8,347.7L493.8,347.7z M538.3,303.9c1.2,0.7,2.3,2.4,2.3,3.9c0,2.4-2,4.4-4.3,4.4
		c-0.6,0-1.1-0.2-1.6-0.3c-2.7-2-6.1-3.3-9.7-3.3c-8.5,0-14.3,6.9-14.3,15.5c0,8.6,5.9,15.4,14.3,15.4c4.2,0,8-1.7,10.8-4.4
		c0.7-0.5,1.6-0.8,2.5-0.8c2.3,0,4.1,1.8,4.1,4.1c0,1.5-0.9,2.8-2,3.5c-4.1,3.5-9.6,5.8-15.3,5.8c-13,0-23.6-10.7-23.6-23.9
		s10.6-23.9,23.6-23.9C529.9,299.8,534.6,301.3,538.3,303.9L538.3,303.9z M561.6,339.5c4.1,0,7.6-3.7,7.6-8.7c0-5-3.6-8.3-7.6-8.3
		c-4.1,0-7.3,3.4-7.3,8.3C554.3,335.6,557.6,339.5,561.6,339.5L561.6,339.5z M571.4,343.7l-0.2-1.1c-1.8,3.5-7.5,5.1-11.1,5.1
		c-8.6,0-15-7.8-15-17.1c0-9.2,6.5-16.8,15.5-16.8c1.5,0,6.7,0.4,10.7,5.1l0.2-1.1c0-2,1.5-3.6,3.5-3.6c2,0,3.6,1.7,3.6,3.6v25.8
		c0,2-1.6,3.6-3.6,3.6C572.9,347.3,571.4,345.6,571.4,343.7z M603.7,339.5c4.1,0,7.3-3.9,7.3-8.7c0-5-3.3-8.3-7.3-8.3
		c-4.1,0-7.6,3.3-7.6,8.3S599.6,339.5,603.7,339.5z M596.1,345v11.7c0,2.6-2.1,4.7-4.6,4.7c-2.5,0-4.6-2.1-4.6-4.7v-38.8
		c0-2,1.6-3.6,3.6-3.6c2,0,3.5,1.7,3.5,4c3.4-3.5,7.6-4.4,10.8-4.4c8.9,0,15.5,7.5,15.5,16.8c0,9.2-6.3,17.1-15,17.1
		C602.6,347.7,598.6,346.9,596.1,345L596.1,345z"/>
</g>
</svg>
