<svg width="512" height="96" viewBox="0 0 512 96" fill="none" xmlns="http://www.w3.org/2000/svg">
<path d="M444.19 25.125C447.278 25.125 450.168 26.138 452.709 28.047C455.364 30.034 456.81 33.151 457.123 36.892C457.137 36.9423 457.132 36.9962 457.109 37.043C457.085 37.0898 457.045 37.1258 456.996 37.144L456.888 37.164H450.872C450.784 37.164 450.696 37.12 450.657 37.049L450.637 36.969C449.933 31.554 443.333 30.073 439.349 32.723C436.574 34.593 436.027 38.879 438.685 41.06C439.725 41.918 440.923 42.602 442.139 43.263L445.356 45.013L448.181 46.462C449.592 47.187 450.989 47.937 452.318 48.814C456.888 51.853 458.41 56.451 457.588 61.554C456.654 66.776 452.044 71.802 443.138 71.802C439.738 71.802 436.457 70.867 433.45 68.607C430.247 66.23 429.075 63.62 429.075 58.905C429.075 58.818 429.141 58.73 429.223 58.692L429.309 58.672H435.831C435.948 58.672 436.066 58.788 436.066 58.905C436.066 59.334 436.144 60.308 436.3 60.815C437.2 63.62 439.776 65.412 443.099 65.607C446.145 65.802 449.191 64.127 450.363 61.71C451.653 59.061 450.715 55.71 447.747 53.88L447.366 53.648L445.957 52.842L444.257 51.912L436.051 47.586L435.553 47.308L435.401 47.217C426.847 41.917 428.293 25.125 444.191 25.125H444.19ZM483.177 26.021C483.265 26.021 483.353 26.087 483.392 26.169L483.412 26.255V43.788C483.412 43.944 483.562 44.05 483.702 44.006L483.802 43.944L501.029 26.099C501.053 26.0707 501.084 26.0482 501.119 26.033L501.186 26.021H509.506C509.662 26.021 509.768 26.171 509.725 26.311L509.662 26.411L489.348 47.451C489.322 47.4794 489.304 47.5137 489.294 47.5508C489.285 47.588 489.285 47.6269 489.295 47.664L489.348 47.762L511.926 71.022C512.051 71.116 512.001 71.31 511.896 71.403L511.809 71.452H503.489L503.411 71.427L503.333 71.373L483.803 51.269C483.709 51.144 483.515 51.194 483.441 51.319L483.411 51.425V71.218C483.411 71.305 483.346 71.393 483.264 71.431L483.177 71.451H476.652C476.565 71.451 476.477 71.386 476.438 71.304L476.418 71.218V26.255C476.418 26.167 476.484 26.08 476.566 26.041L476.652 26.021H483.177V26.021ZM151.377 25.982C151.455 25.982 151.517 26 151.56 26.046L151.612 26.138L156.963 43.749C156.974 43.7887 156.996 43.8247 157.025 43.8537C157.055 43.8828 157.091 43.9039 157.131 43.9151C157.17 43.9263 157.212 43.9272 157.253 43.9177C157.293 43.9083 157.33 43.8888 157.361 43.861L157.432 43.749L162.784 26.139C162.811 26.0812 162.857 26.0341 162.914 26.005L163.018 25.982H172.901C172.989 25.982 173.077 26.048 173.115 26.13L173.135 26.216V71.18C173.135 71.267 173.069 71.355 172.987 71.393L172.901 71.413H166.377C166.29 71.413 166.202 71.348 166.163 71.266L166.143 71.18V37.01C166.143 36.782 165.872 36.69 165.736 36.824L165.674 36.932L160.284 54.66L159.893 55.906C159.865 55.9634 159.819 56.0101 159.763 56.039L159.659 56.062H154.659C154.58 56.062 154.519 56.045 154.476 55.999L154.424 55.906L154.034 54.66L148.644 36.932C148.578 36.737 148.296 36.732 148.204 36.893L148.174 37.01V71.18C148.174 71.267 148.108 71.355 148.026 71.393L147.94 71.413H141.416C141.328 71.413 141.24 71.348 141.202 71.266L141.182 71.18V26.216C141.182 26.128 141.248 26.041 141.33 26.002L141.416 25.982H151.377V25.982ZM340.793 25.982C340.871 25.982 340.932 26 340.975 26.046L341.027 26.138L346.38 43.749C346.391 43.7885 346.413 43.8243 346.442 43.8532C346.472 43.8822 346.508 43.9032 346.547 43.9144C346.587 43.9255 346.629 43.9265 346.669 43.9172C346.709 43.9078 346.746 43.8885 346.777 43.861L346.849 43.749L352.198 26.139C352.225 26.0812 352.271 26.0341 352.328 26.005L352.432 25.982H362.355C362.443 25.982 362.531 26.048 362.569 26.13L362.589 26.216V71.18C362.589 71.267 362.524 71.355 362.441 71.393L362.355 71.413H355.833C355.745 71.413 355.657 71.348 355.619 71.266L355.599 71.18V37.01C355.599 36.782 355.327 36.69 355.191 36.824L355.13 36.932L349.738 54.66L349.348 55.906C349.32 55.9636 349.274 56.0103 349.217 56.039L349.113 56.062H344.113C344.034 56.062 343.973 56.045 343.93 55.999L343.878 55.906L343.487 54.66L338.099 36.932C338.033 36.737 337.751 36.732 337.659 36.893L337.629 37.01V71.18C337.629 71.267 337.564 71.355 337.481 71.393L337.395 71.413H330.87C330.782 71.413 330.694 71.348 330.656 71.266L330.636 71.18V26.216C330.636 26.128 330.701 26.041 330.784 26.002L330.87 25.982H340.793V25.982ZM268.292 25.982C268.339 25.9794 268.387 25.9924 268.426 26.0191C268.466 26.0458 268.496 26.0848 268.512 26.13L268.526 26.216V31.826C268.526 31.914 268.46 32.002 268.378 32.04L268.292 32.06H256.378V71.18C256.378 71.267 256.312 71.355 256.229 71.393L256.143 71.413H249.62C249.532 71.413 249.444 71.348 249.406 71.266L249.386 71.18V32.06H237.47C237.382 32.06 237.294 31.994 237.256 31.912L237.236 31.826V26.216C237.236 26.127 237.302 26.04 237.384 26.001L237.47 25.981H268.29L268.292 25.982ZM300.44 25.826C300.519 25.826 300.58 25.843 300.623 25.889L300.675 25.982L312.94 71.1C312.953 71.1548 312.948 71.2125 312.925 71.2641C312.903 71.3157 312.863 71.3582 312.814 71.385L312.706 71.412H306.77C306.704 71.4051 306.643 71.377 306.596 71.332L306.536 71.256L302.981 58.126C302.953 58.0686 302.907 58.0218 302.851 57.993L302.747 57.97H289.62C289.541 57.97 289.48 57.987 289.437 58.033L289.385 58.126L285.831 71.256C285.803 71.3134 285.757 71.3602 285.701 71.389L285.596 71.412H279.659C279.603 71.4111 279.549 71.391 279.505 71.3552C279.462 71.3194 279.433 71.2699 279.422 71.215L279.424 71.1L291.69 25.982C291.717 25.9246 291.763 25.8778 291.82 25.849L291.924 25.826H300.439H300.44ZM401.691 25.826C401.769 25.826 401.83 25.843 401.873 25.889L401.926 25.982L414.19 71.1C414.203 71.1549 414.198 71.2127 414.175 71.2643C414.152 71.3159 414.112 71.3584 414.063 71.385L413.955 71.412H408.02C407.985 71.4122 407.951 71.4052 407.92 71.3914C407.888 71.3776 407.86 71.3574 407.837 71.332L407.785 71.256L404.231 58.126C404.203 58.0686 404.157 58.0218 404.101 57.993L403.996 57.97H390.871C390.793 57.97 390.732 57.987 390.689 58.033L390.637 58.126L387.083 71.256C387.055 71.3134 387.009 71.3602 386.953 71.389L386.848 71.412H380.91C380.854 71.4111 380.8 71.391 380.756 71.3552C380.713 71.3194 380.684 71.2699 380.673 71.215L380.675 71.1L392.94 25.982C392.967 25.9246 393.013 25.8778 393.07 25.849L393.175 25.826H401.69H401.691ZM219.621 26.021C219.708 26.021 219.796 26.087 219.834 26.169L219.854 26.255V31.865C219.854 31.953 219.789 32.041 219.706 32.079L219.62 32.099H199.854C199.766 32.099 199.678 32.165 199.64 32.247L199.62 32.333V44.256C199.62 44.343 199.686 44.431 199.768 44.469L199.854 44.489H217.237C217.325 44.489 217.413 44.555 217.452 44.637L217.472 44.723V50.333C217.472 50.421 217.406 50.509 217.323 50.547L217.237 50.567H199.854C199.766 50.567 199.678 50.633 199.64 50.715L199.62 50.801V64.75C199.62 64.854 199.655 64.923 199.713 64.97L199.815 65.023H220.44C220.528 65.023 220.616 65.088 220.655 65.171L220.675 65.256V71.179C220.675 71.266 220.609 71.354 220.527 71.392L220.44 71.412H192.862C192.774 71.412 192.686 71.347 192.648 71.264L192.628 71.179V26.255C192.628 26.167 192.694 26.08 192.776 26.041L192.862 26.021H219.62H219.621ZM296.418 33.969C296.406 33.9294 296.384 33.8933 296.355 33.8643C296.326 33.8352 296.289 33.8141 296.25 33.8029C296.21 33.7917 296.168 33.7908 296.128 33.8003C296.087 33.8097 296.05 33.8292 296.02 33.857L295.949 33.969L291.183 51.541C291.153 51.658 291.213 51.775 291.309 51.826L291.417 51.853H300.949C301.005 51.8518 301.058 51.8317 301.101 51.7959C301.144 51.7601 301.174 51.7108 301.185 51.656L301.183 51.541L296.418 33.969V33.969ZM397.668 33.969C397.656 33.9294 397.634 33.8933 397.605 33.8643C397.576 33.8352 397.539 33.8141 397.5 33.8029C397.46 33.7917 397.418 33.7908 397.378 33.8003C397.337 33.8097 397.3 33.8292 397.27 33.857L397.199 33.969L392.433 51.541C392.403 51.658 392.463 51.775 392.559 51.826L392.667 51.853H402.199C402.255 51.8521 402.309 51.832 402.352 51.7962C402.395 51.7604 402.424 51.7109 402.436 51.656L402.434 51.541L397.668 33.969V33.969Z" fill="white"/>
<path d="M99.7605 0L55.9385 32.425L64.0875 13.316L99.7605 0Z" fill="#E17726"/>
<path d="M2.46983 0.0371094L38.0468 13.3171L45.7848 32.6771L2.46983 0.0371094ZM82.1248 68.9581L101.493 69.3271L94.7238 92.3221L71.0898 85.8151L82.1248 68.9581ZM20.0018 68.9581L30.9958 85.8151L7.40083 92.3231L0.673828 69.3271L20.0018 68.9581Z" fill="#E27625"/>
<path d="M44.7329 27.7469L45.5249 53.3119L21.8389 52.2339L28.5759 42.0699L28.6619 41.9719L44.7329 27.7469ZM57.1489 27.4609L73.4649 41.9729L73.5499 42.0709L80.2869 52.2339L56.6069 53.3119L57.1489 27.4609ZM31.6889 69.0329L44.6219 79.1099L29.5989 86.3629L31.6889 69.0329ZM70.4399 69.0319L72.4869 86.3629L57.5059 79.1089L70.4399 69.0319Z" fill="#E27625"/>
<path d="M57.8369 78.1602L73.0389 85.5212L58.8979 92.2421L59.0449 87.8002L57.8369 78.1602ZM44.2859 78.1632L43.1259 87.7271L43.2209 92.2372L29.0469 85.5212L44.2859 78.1632Z" fill="#D5BFB2"/>
<path d="M39.8958 56.6484L43.8687 64.9974L30.3438 61.0354L39.8958 56.6484ZM62.2297 56.6494L71.8278 61.0354L58.2587 64.9964L62.2297 56.6494Z" fill="#233447"/>
<path d="M32.7233 68.9487L30.5373 86.9168L18.8193 69.3418L32.7233 68.9487ZM69.4053 68.9487L83.3103 69.3418L71.5483 86.9178L69.4053 68.9487ZM80.6303 51.2188L70.5103 61.5317L62.7093 57.9668L58.9733 65.8188L56.5253 52.3158L80.6303 51.2188ZM21.4933 51.2188L45.6023 52.3158L43.1533 65.8188L39.4173 57.9678L31.6563 61.5317L21.4933 51.2188Z" fill="#CC6228"/>
<path d="M20.8105 49.1011L32.2585 60.7181L32.6555 72.1871L20.8105 49.1011ZM81.3275 49.0801L69.4615 72.2071L69.9075 60.7181L81.3275 49.0801ZM45.0415 49.8081L45.5025 52.7091L46.6415 59.9341L45.9095 82.1241L42.4485 64.2981L42.4475 64.1141L45.0415 49.8081ZM57.0785 49.7681L59.6795 64.1141L59.6785 64.2981L56.2095 82.1691L56.0715 77.6991L55.5305 59.8021L57.0785 49.7681Z" fill="#E27525"/>
<path d="M70.9262 60.2578L70.5392 70.2228L58.4612 79.6328L56.0202 77.9078L58.7562 63.8108L70.9262 60.2578ZM31.2432 60.2588L43.3712 63.8118L46.1072 77.9078L43.6662 79.6328L31.5882 70.2218L31.2432 60.2588Z" fill="#F5841F"/>
<path d="M26.7363 83.3203L42.1873 90.6413L42.1223 87.5143L43.4153 86.3803H58.7083L60.0473 87.5113L59.9483 90.6353L75.3023 83.3383L67.8313 89.5123L58.7973 95.7173H43.2913L34.2633 89.4863L26.7363 83.3203Z" fill="#C0AC9D"/>
<path d="M56.7297 77.1855L58.9147 78.7285L60.1947 88.9426L58.3417 87.3785H43.7907L41.9727 88.9745L43.2117 78.7296L45.3967 77.1855H56.7297Z" fill="#161616"/>
<path d="M96.867 0.898438L102.127 16.6784L98.842 32.6344L101.181 34.4394L98.016 36.8544L100.395 38.6914L97.245 41.5604L99.179 42.9614L94.046 48.9554L72.994 42.8264L72.812 42.7284L57.642 29.9314L96.867 0.898438ZM5.26 0.898438L44.486 29.9314L29.315 42.7284L29.133 42.8264L8.081 48.9554L2.949 42.9614L4.881 41.5614L1.732 38.6914L4.107 36.8564L0.894 34.4344L3.322 32.6284L0 16.6794L5.26 0.898438Z" fill="#763E1A"/>
<path d="M71.9644 41.485L94.2704 47.98L101.517 70.314H82.3994L69.2254 70.48L78.8054 51.807L71.9644 41.485ZM30.1634 41.485L23.3204 51.807L32.9024 70.48L19.7354 70.314H0.650391L7.85739 47.98L30.1634 41.485ZM65.1804 13.209L58.9404 30.06L57.6164 52.823L57.1104 59.958L57.0704 78.185H45.0574L45.0184 59.992L44.5104 52.817L43.1854 30.06L36.9474 13.209H65.1804Z" fill="#F5841F"/>
</svg>
