<svg width="200" height="28" viewBox="0 0 200 28" fill="none" xmlns="http://www.w3.org/2000/svg">
<path d="M10.0987 27.4307C7.132 27.4307 4.7 26.732 2.80533 25.336C0.933333 23.9133 0 21.8947 0 19.276C0 18.728 0.0626667 18.0547 0.186667 17.256C0.510667 15.4613 0.973333 13.304 1.57067 10.7853C3.26667 3.928 7.64267 0.5 14.6987 0.5C16.6187 0.5 18.3387 0.824 19.8613 1.47333C21.3813 2.096 22.5787 3.044 23.452 4.31467C24.324 5.56133 24.7613 7.05733 24.7613 8.804C24.7613 9.32667 24.6987 9.988 24.5747 10.7853C24.21 12.9589 23.7608 15.1174 23.228 17.256C22.3547 20.6733 20.8453 23.2293 18.7013 24.924C16.5573 26.5947 13.6893 27.4307 10.0987 27.4307ZM10.6227 22.044C12.0187 22.044 13.2027 21.632 14.176 20.8093C15.1733 19.9867 15.8827 18.728 16.308 17.032C16.8148 15.0032 17.2515 12.9576 17.6173 10.8987C17.716 10.3747 17.7667 9.83867 17.7667 9.28933C17.7667 7.02 16.5813 5.88667 14.2133 5.88667C12.8173 5.88667 11.62 6.29733 10.6227 7.12C9.64933 7.94267 8.952 9.20267 8.528 10.8973C8.07867 12.568 7.63067 14.6133 7.18133 17.032C7.07991 17.5494 7.02989 18.0755 7.032 18.6027C7.032 20.896 8.228 22.044 10.6227 22.044ZM28.556 27.056C28.2813 27.056 28.0693 26.9693 27.92 26.7947C27.7952 26.5938 27.7549 26.3518 27.808 26.1213L32.9693 1.80933C33.0159 1.54061 33.1633 1.29978 33.3813 1.136C33.5815 0.970464 33.8323 0.878264 34.092 0.874667H44.0413C46.808 0.874667 49.028 1.448 50.6987 2.59467C52.3933 3.74133 53.2413 5.4 53.2413 7.568C53.2413 8.192 53.1667 8.84133 53.0173 9.51467C52.3933 12.3813 51.1347 14.5013 49.24 15.872C47.3693 17.244 44.8 17.9293 41.5347 17.9293H36.4853L34.7653 26.1213C34.7188 26.3901 34.5714 26.6309 34.3533 26.7947C34.1531 26.9602 33.9024 27.0524 33.6427 27.056H28.556ZM41.796 12.768C42.844 12.768 43.7533 12.4813 44.5267 11.908C45.3253 11.3347 45.848 10.512 46.0973 9.43867C46.172 9.016 46.2107 8.64133 46.2107 8.31733C46.2107 7.59467 45.9973 7.04533 45.5747 6.672C45.1507 6.272 44.428 6.072 43.4053 6.072H38.916L37.4947 12.768H41.796ZM61.6693 27.056C61.3947 27.056 61.1827 26.9693 61.0333 26.7947C60.9605 26.7003 60.9093 26.5911 60.8835 26.4747C60.8577 26.3583 60.8579 26.2376 60.884 26.1213L65.036 6.74667H58.3773C58.104 6.74667 57.892 6.65867 57.7413 6.484C57.6163 6.28323 57.5761 6.04109 57.6293 5.81067L58.4893 1.80933C58.5359 1.54061 58.6833 1.29978 58.9013 1.136C59.1015 0.970464 59.3523 0.878264 59.612 0.874667H79.7347C80.0093 0.874667 80.2213 0.961333 80.3707 1.136C80.4644 1.26739 80.5165 1.42396 80.52 1.58533C80.5197 1.66152 80.5071 1.73717 80.4827 1.80933L79.6227 5.81067C79.5762 6.07944 79.4288 6.32031 79.2107 6.484C79.015 6.65746 78.7614 6.75119 78.5 6.74667H71.88L67.728 26.12C67.6821 26.389 67.5352 26.6303 67.3173 26.7947C67.1171 26.9602 66.8664 27.0524 66.6067 27.056H61.6693ZM81.4747 27.056C81.2 27.056 80.988 26.9693 80.8387 26.7947C80.7657 26.7004 80.7145 26.5911 80.6887 26.4747C80.6629 26.3583 80.6631 26.2376 80.6893 26.1213L85.888 1.80933C85.9346 1.54061 86.0819 1.29978 86.3 1.136C86.4998 0.970749 86.7501 0.878567 87.0093 0.874667H92.0587C92.3333 0.874667 92.5453 0.961333 92.6947 1.136C92.7889 1.26724 92.8414 1.42382 92.8453 1.58533C92.8451 1.66152 92.8324 1.73717 92.808 1.80933L87.6453 26.1213C87.5991 26.3899 87.4523 26.6307 87.2347 26.7947C87.0345 26.9602 86.7837 27.0524 86.524 27.056H81.4747ZM95.716 27.056C95.4427 27.056 95.2307 26.9693 95.08 26.7947C94.9307 26.62 94.88 26.3947 94.9307 26.1213L100.093 1.80933C100.14 1.54061 100.287 1.29978 100.505 1.136C100.717 0.965955 100.981 0.873723 101.253 0.874667H105.293C105.892 0.874667 106.277 1.148 106.453 1.69733L110.529 13.4787L119.617 1.69733C119.741 1.49733 119.916 1.31067 120.14 1.136C120.389 0.961333 120.689 0.874667 121.039 0.874667H125.115C125.389 0.874667 125.601 0.961333 125.751 1.136C125.844 1.26739 125.896 1.42396 125.9 1.58533C125.9 1.66152 125.887 1.73717 125.863 1.80933L120.703 26.1213C120.656 26.3903 120.508 26.6311 120.289 26.7947C120.09 26.9599 119.839 27.0521 119.58 27.056H115.053C114.779 27.056 114.568 26.9693 114.417 26.7947C114.292 26.5938 114.252 26.3518 114.305 26.1213L117.223 12.3187L111.5 19.912C111.29 20.1518 111.051 20.3654 110.789 20.548C110.556 20.7001 110.282 20.7782 110.004 20.772H108.059C107.536 20.772 107.175 20.4853 106.975 19.912L104.319 11.9827L101.327 26.1213C101.28 26.3901 101.133 26.6309 100.915 26.7947C100.714 26.9602 100.464 27.0524 100.204 27.056H95.716ZM128.731 27.056C128.457 27.056 128.245 26.9693 128.095 26.7947C127.945 26.5947 127.895 26.3707 127.945 26.1213L133.147 1.80933C133.193 1.54081 133.34 1.30001 133.557 1.136C133.757 0.97037 134.008 0.878157 134.268 0.874667H139.317C139.592 0.874667 139.804 0.961333 139.953 1.136C140.047 1.26732 140.099 1.42393 140.103 1.58533C140.103 1.66154 140.09 1.73722 140.065 1.80933L134.904 26.1213C134.858 26.3902 134.71 26.6312 134.492 26.7947C134.292 26.9603 134.041 27.0525 133.781 27.056H128.732H128.731ZM152.212 27.4307C150.017 27.4307 148.135 27.1307 146.564 26.532C145.017 25.9347 143.845 25.136 143.048 24.1387C142.275 23.1413 141.888 22.032 141.888 20.8093C141.888 20.6093 141.913 20.3107 141.963 19.912C142.007 19.7004 142.111 19.506 142.263 19.352C142.428 19.2056 142.641 19.1253 142.861 19.1267H147.648C147.948 19.1267 148.172 19.176 148.321 19.276C148.496 19.376 148.671 19.5507 148.845 19.8C149.02 20.448 149.419 20.984 150.043 21.408C150.691 21.832 151.576 22.044 152.697 22.044C154.119 22.044 155.267 21.82 156.139 21.3707C157.012 20.9213 157.536 20.3107 157.709 19.5373C157.735 19.4387 157.747 19.288 157.747 19.0893C157.747 18.4653 157.361 17.98 156.588 17.6307C155.815 17.2573 154.393 16.82 152.324 16.3213C149.905 15.7973 148.072 15.012 146.825 13.9653C145.579 12.8933 144.956 11.496 144.956 9.776C144.956 9.17733 145.031 8.56667 145.18 7.94267C145.679 5.624 146.913 3.804 148.883 2.48267C150.877 1.16133 153.445 0.5 156.588 0.5C158.483 0.5 160.167 0.836 161.637 1.50933C163.108 2.18267 164.243 3.04267 165.041 4.09067C165.864 5.11333 166.275 6.136 166.275 7.15733C166.275 7.45733 166.263 7.66933 166.237 7.79333C166.191 8.01271 166.073 8.21032 165.901 8.35467C165.828 8.42828 165.74 8.48612 165.644 8.52464C165.547 8.56316 165.444 8.58155 165.34 8.57867H160.328C159.78 8.57867 159.405 8.36667 159.207 7.94267C159.181 7.36933 158.881 6.884 158.308 6.484C157.735 6.08533 156.987 5.88667 156.064 5.88667C154.967 5.88667 154.057 6.08667 153.333 6.484C152.636 6.884 152.199 7.46933 152.025 8.24267C151.997 8.40282 151.984 8.56535 151.987 8.728C151.987 9.328 152.336 9.82533 153.035 10.2253C153.757 10.5987 155.017 10.9853 156.812 11.3853C159.605 11.932 161.637 12.7187 162.909 13.74C164.205 14.7627 164.853 16.1213 164.853 17.8173C164.853 18.3907 164.779 19.0147 164.629 19.688C164.081 22.2307 162.747 24.164 160.627 25.4853C158.533 26.7813 155.728 27.4307 152.212 27.4307ZM169.816 27.056C169.541 27.056 169.329 26.9693 169.18 26.7947C169.031 26.62 168.98 26.3947 169.031 26.1213L174.192 1.80933C174.238 1.54041 174.386 1.29941 174.604 1.136C174.816 0.965763 175.08 0.873507 175.352 0.874667H179.391C179.989 0.874667 180.376 1.148 180.551 1.69733L184.628 13.4787L193.716 1.69733C193.841 1.49733 194.016 1.31067 194.24 1.136C194.489 0.961333 194.788 0.874667 195.137 0.874667H199.215C199.489 0.874667 199.701 0.961333 199.851 1.136C199.945 1.26732 199.997 1.42393 200 1.58533C200 1.66154 199.987 1.73722 199.963 1.80933L194.801 26.1213C194.754 26.3898 194.607 26.6304 194.389 26.7947C194.189 26.9603 193.938 27.0525 193.679 27.056H189.153C188.879 27.056 188.667 26.9693 188.517 26.7947C188.455 26.6954 188.413 26.5848 188.394 26.4692C188.375 26.3536 188.379 26.2354 188.405 26.1213L191.323 12.3187L185.6 19.912C185.389 20.1518 185.151 20.3653 184.889 20.548C184.656 20.7001 184.382 20.7782 184.104 20.772H182.159C181.635 20.772 181.273 20.4853 181.075 19.912L178.419 11.9827L175.427 26.1213C175.379 26.3898 175.232 26.6304 175.015 26.7947C174.815 26.9603 174.564 27.0525 174.304 27.056H169.816Z" fill="#F8F8F8"/>
</svg>
