<svg width="207" height="73" fill="none" xmlns="http://www.w3.org/2000/svg"><path d="M60.167 37.019V47.87a3.91 3.91 0 0 1-1.926 3.347l-9.4 5.415a3.76 3.76 0 0 1-3.851 0l-9.401-5.415a3.911 3.911 0 0 1-1.926-3.347v-3.046l4.814-2.794v5.295l8.423 4.889 8.423-4.889V37.57L46.9 32.683 27.165 44.115a3.923 3.923 0 0 1-3.85 0l-9.402-5.438a3.911 3.911 0 0 1-1.88-3.343V24.481a3.91 3.91 0 0 1 1.926-3.346l9.4-5.415a3.794 3.794 0 0 1 3.851 0l9.401 5.415a3.91 3.91 0 0 1 1.926 3.346v3.046l-4.844 2.775v-5.264l-8.423-4.889-8.424 4.889v9.743l8.424 4.889 19.735-11.432a3.921 3.921 0 0 1 3.85 0l9.401 5.438a3.911 3.911 0 0 1 1.91 3.343Z" fill="#7B3FE4"/><path d="M76.919 51.816v-8.457c.917 1.154 2.583 1.8 4.512 1.8 4.926 0 8.254-3.496 8.254-8.828 0-5.333-3.057-8.83-7.844-8.83-2.207 0-3.907.816-4.926 2.14v-1.88h-4.716v24.044l4.72.01Zm3.93-10.732c-2.55 0-4.213-1.903-4.213-4.754 0-2.85 1.663-4.787 4.212-4.787 2.478 0 4.178 1.88 4.178 4.788 0 2.906-1.688 4.753-4.178 4.753Zm19.555 4.076c5.265 0 9.025-3.738 9.025-8.83 0-5.091-3.76-8.829-9.025-8.829-5.265 0-9.025 3.734-9.025 8.83 0 5.095 3.76 8.829 9.025 8.829Zm0-4.076c-2.546 0-4.28-1.937-4.28-4.754 0-2.816 1.738-4.787 4.28-4.787 2.542 0 4.279 1.933 4.279 4.788 0 2.854-1.73 4.753-4.279 4.753Zm16.609 3.806V20.333h-4.719v24.555h4.719Zm14.188-17.118-3.565 11.037-3.599-11.037h-4.832l6.212 16.978-2.512 7.066h4.513l2.425-6.99 6.216-17.047-4.858-.007Zm18.115 1.699c-.952-1.188-2.632-1.97-4.72-1.97-4.993 0-8.013 3.497-8.013 8.83 0 5.332 3.008 8.829 8.081 8.829 2.004 0 3.802-.752 4.686-2.004v2.256c0 1.594-1.053 2.715-2.478 2.715h-7.879v3.704h8.627c3.869 0 6.449-2.343 6.449-5.912V27.773h-4.753v1.7Zm-3.904 11.613c-2.515 0-4.177-1.88-4.177-4.754 0-2.872 1.662-4.787 4.177-4.787 2.516 0 4.208 1.88 4.208 4.788 0 2.906-1.662 4.753-4.208 4.753Zm20.558 4.076c5.265 0 9.025-3.738 9.025-8.83 0-5.091-3.76-8.829-9.025-8.829-5.264 0-9.025 3.734-9.025 8.83 0 5.095 3.761 8.829 9.025 8.829Zm0-4.076c-2.549 0-4.279-1.937-4.279-4.754 0-2.816 1.73-4.787 4.279-4.787 2.55 0 4.28 1.933 4.28 4.788 0 2.854-1.734 4.753-4.28 4.753Zm16.369 3.806v-9.376c0-2.207 1.459-3.801 3.531-3.801 1.971 0 3.294 1.504 3.294 3.565v9.611h4.753V34.225c0-3.941-2.511-6.724-6.392-6.724-2.343 0-4.242.985-5.193 2.632v-2.361h-4.746v17.117h4.753Z" fill="#fff"/></svg>